# xmcd
#
# Track frame offsets:
#	150
#	21898
#	39150
#	54650
#	70158
#	87170
#	101373
#	119235
#	137898
#	159850
#	178765
#	198688
#	247885
#
# Disc length: 3465 seconds
#
# Revision: 1
# Processed by: cddbd v1.5.2PL0 Copyright (c) Steve Scherf et al.
# Submitted via: EZCDAudioConverter 3.1.4.1
#
DISCID=af0d870d
DTITLE=Zazie - Rodéo
DYEAR=2004
DGENRE=Pop
TTITLE0=La dolce vita
TTITLE1=J'aime, j'aime pas
TTITLE2=Excuse moi
TTITLE3=Toc, toc, toc
TTITLE4=La pluie et le beau temps
TTITLE5=Lola majeure
TTITLE6=Rodéo
TTITLE7=Slow
TTITLE8=Doolididom
TTITLE9=Sauver le monde
TTITLE10=Oui
TTITLE11=J'arrive
TTITLE12=Data
EXTD=
EXTT0=
EXTT1=
EXTT2=
EXTT3=
EXTT4=
EXTT5=
EXTT6=
EXTT7=
EXTT8=
EXTT9=
EXTT10=
EXTT11=
EXTT12=
PLAYORDER=
